# xmcd CD database file
#
# Track frame offsets:
#	150
#	18623
#	31145
#	43777
#	65599
#	94877
#	113376
#	127819
#	145483
#	168800
#	175909
#	182722
#	193906
#	209589
#	222392
#	234925
#
# Disc length: 3335 seconds
#
# Revision: 0
# Processed by: cddbd v1.5.2PL0 Copyright (c) Steve Scherf et al.
# Submitted via: CDex 1.70beta2
#
DISCID=e40d0510
DTITLE=Sabina Hank - Carmen
DYEAR=1998
DGENRE=Jazz
TTITLE0=introduction
TTITLE1=this is carmen
TTITLE2=smoke
TTITLE3=bright world
TTITLE4=night club shuffle
TTITLE5=idyl theme
TTITLE6=dark and bright
TTITLE7=vision morales
TTITLE8=dark world
TTITLE9=flower theme
TTITLE10=murder
TTITLE11=outroduction
TTITLE12=carmen 1
TTITLE13=smoke 1
TTITLE14=this is carmen 1
TTITLE15=carmen 2
EXTD=YEAR: 1998
EXTT0=
EXTT1=
EXTT2=
EXTT3=
EXTT4=
EXTT5=
EXTT6=
EXTT7=
EXTT8=
EXTT9=
EXTT10=
EXTT11=
EXTT12=
EXTT13=
EXTT14=
EXTT15=
PLAYORDER=
